<svg width="50" height="50" viewBox="0 0 50 50" fill="none" xmlns="http://www.w3.org/2000/svg">
<path d="M18.9163 26.4418C18.7746 27.1645 18.4248 27.4375 17.6753 27.5205C14.6083 27.8524 11.5226 28.1195 8.49577 28.6912C3.32769 29.6653 -0.152926 34.3026 0.00517207 39.6915C0.155898 44.8117 4.08049 49.1677 9.19943 49.897C11.6705 50.2467 14.184 49.6995 16.295 48.3522C18.4059 47.0049 19.9781 44.9445 20.7332 42.5358C21.622 39.6998 22.3715 36.8174 23.1456 33.9466C23.3201 33.3019 23.5913 32.9958 24.3023 32.9161C28.3063 32.4664 32.3038 31.9628 36.3013 31.4575C37.5923 31.2915 39.2454 31.6184 40.0744 30.8095C40.9501 29.9549 40.5954 28.2432 40.7625 26.9048C41.0459 24.6231 41.0254 24.6472 38.776 24.9326C34.5631 25.4653 30.3436 25.949 26.1315 26.4883C25.3942 26.5829 25.2083 26.4145 25.4548 25.6951C25.6924 25.0015 25.9218 24.2937 26.0389 23.5727C26.1716 22.7571 26.6328 22.5239 27.3676 22.4435C30.0708 22.1464 32.774 21.8046 35.4773 21.4793C40.9566 20.8197 44.941 16.3044 45 10.747C44.9181 10.0185 44.8878 9.27839 44.7395 8.564C43.7287 3.69773 39.6927 0.233675 34.8146 0.0113121C29.9365 -0.211051 25.599 2.86304 24.1655 7.62809C23.3521 10.3354 22.587 13.0594 21.889 15.7983C21.6597 16.7002 21.2501 17.0105 20.3564 17.1101C15.7388 17.6261 11.1302 18.2194 6.51668 18.7695C5.97603 18.8342 5.55089 18.9006 5.48863 19.6133C5.34855 21.2238 5.16097 22.8309 4.94553 24.4339C4.86361 25.0653 5.04464 25.1898 5.63935 25.106C7.36451 24.8646 9.09703 24.6804 10.8271 24.4704C13.4574 24.1518 16.0902 23.8498 18.7164 23.498C19.5544 23.386 19.7674 23.6084 19.4709 24.4215C19.2344 25.0793 19.049 25.7548 18.9163 26.4418ZM16.6489 34.5233C16.0361 36.634 15.5168 38.7747 14.8287 40.859C14.2315 42.6669 12.4892 43.797 10.6346 43.8011C8.34095 43.8061 6.38151 42.0239 6.12921 39.7015C5.88346 37.4497 7.37352 35.1937 9.58279 34.783C11.7511 34.3789 13.9596 34.1955 16.15 33.9109C16.6472 33.8454 16.7988 34.008 16.6489 34.5233ZM28.3432 15.3063C28.9354 13.2992 29.4294 11.2606 30.0708 9.26926C30.772 7.0896 32.9379 5.86743 35.157 6.26072C37.2868 6.63907 38.8735 8.59055 38.8514 10.8075C38.8293 13.0245 37.2639 14.9395 35.0701 15.278C33.0624 15.5892 31.0341 15.7676 29.019 16.0339C28.3981 16.1161 28.131 16.0248 28.3432 15.3063Z" fill="white"/>
</svg>
